<mxfile host="app.diagrams.net" modified="2024-05-20T10:00:08.172Z" agent="Mozilla/5.0 (Macintosh; Intel Mac OS X 10_15_7) AppleWebKit/537.36 (KHTML, like Gecko) Chrome/124.0.0.0 Safari/537.36" etag="e--DgNVIpxWoHbNey51D" version="24.4.4" type="github">
  <diagram name="第 1 页" id="g3jf6REd8ba6eSYv19ur">
    <mxGraphModel dx="1205" dy="669" grid="0" gridSize="10" guides="1" tooltips="1" connect="1" arrows="1" fold="1" page="1" pageScale="1" pageWidth="827" pageHeight="1169" math="0" shadow="0">
      <root>
        <mxCell id="0" />
        <mxCell id="1" parent="0" />
        <mxCell id="pDpPo_hhrUAkRmJw7Qo8-295" value="" style="html=1;dashed=1;whiteSpace=wrap;dashPattern=12 12;" vertex="1" parent="1">
          <mxGeometry x="649" y="1221" width="288" height="333" as="geometry" />
        </mxCell>
        <mxCell id="pDpPo_hhrUAkRmJw7Qo8-256" value="" style="html=1;dashed=1;whiteSpace=wrap;dashPattern=12 12;" vertex="1" parent="1">
          <mxGeometry x="381" y="1894" width="290" height="192" as="geometry" />
        </mxCell>
        <mxCell id="pDpPo_hhrUAkRmJw7Qo8-64" style="edgeStyle=orthogonalEdgeStyle;rounded=0;orthogonalLoop=1;jettySize=auto;html=1;entryX=0;entryY=0.5;entryDx=0;entryDy=0;" edge="1" parent="1" source="pDpPo_hhrUAkRmJw7Qo8-56" target="pDpPo_hhrUAkRmJw7Qo8-57">
          <mxGeometry relative="1" as="geometry" />
        </mxCell>
        <mxCell id="pDpPo_hhrUAkRmJw7Qo8-56" value="开始" style="html=1;dashed=0;whiteSpace=wrap;shape=mxgraph.dfd.start" vertex="1" parent="1">
          <mxGeometry x="68" y="106" width="74" height="30" as="geometry" />
        </mxCell>
        <mxCell id="pDpPo_hhrUAkRmJw7Qo8-65" style="edgeStyle=orthogonalEdgeStyle;rounded=0;orthogonalLoop=1;jettySize=auto;html=1;entryX=0;entryY=0.5;entryDx=0;entryDy=0;" edge="1" parent="1" source="pDpPo_hhrUAkRmJw7Qo8-57" target="pDpPo_hhrUAkRmJw7Qo8-59">
          <mxGeometry relative="1" as="geometry" />
        </mxCell>
        <mxCell id="pDpPo_hhrUAkRmJw7Qo8-57" value="选择项目" style="html=1;dashed=0;whiteSpace=wrap;" vertex="1" parent="1">
          <mxGeometry x="200" y="96" width="100" height="50" as="geometry" />
        </mxCell>
        <mxCell id="pDpPo_hhrUAkRmJw7Qo8-75" style="edgeStyle=orthogonalEdgeStyle;rounded=0;orthogonalLoop=1;jettySize=auto;html=1;entryX=0.5;entryY=0;entryDx=0;entryDy=0;" edge="1" parent="1" source="pDpPo_hhrUAkRmJw7Qo8-58" target="pDpPo_hhrUAkRmJw7Qo8-59">
          <mxGeometry relative="1" as="geometry">
            <mxPoint x="405" y="78.69230769230762" as="targetPoint" />
          </mxGeometry>
        </mxCell>
        <mxCell id="pDpPo_hhrUAkRmJw7Qo8-58" value="项目三维数据" style="shape=document;whiteSpace=wrap;html=1;boundedLbl=1;dashed=0;flipH=1;" vertex="1" parent="1">
          <mxGeometry x="281" y="12" width="100" height="44" as="geometry" />
        </mxCell>
        <mxCell id="pDpPo_hhrUAkRmJw7Qo8-59" value="三维可视化" style="html=1;dashed=0;whiteSpace=wrap;" vertex="1" parent="1">
          <mxGeometry x="357" y="96" width="100" height="50" as="geometry" />
        </mxCell>
        <mxCell id="pDpPo_hhrUAkRmJw7Qo8-68" style="edgeStyle=orthogonalEdgeStyle;rounded=0;orthogonalLoop=1;jettySize=auto;html=1;entryX=0.5;entryY=1;entryDx=0;entryDy=0;" edge="1" parent="1" source="pDpPo_hhrUAkRmJw7Qo8-60" target="pDpPo_hhrUAkRmJw7Qo8-63">
          <mxGeometry relative="1" as="geometry" />
        </mxCell>
        <mxCell id="pDpPo_hhrUAkRmJw7Qo8-60" value="项目人员位置数据" style="shape=document;whiteSpace=wrap;html=1;boundedLbl=1;dashed=0;flipH=1;" vertex="1" parent="1">
          <mxGeometry x="357" y="282" width="100" height="70" as="geometry" />
        </mxCell>
        <mxCell id="pDpPo_hhrUAkRmJw7Qo8-76" style="edgeStyle=orthogonalEdgeStyle;rounded=0;orthogonalLoop=1;jettySize=auto;html=1;entryX=0.5;entryY=0;entryDx=0;entryDy=0;" edge="1" parent="1" source="pDpPo_hhrUAkRmJw7Qo8-61" target="pDpPo_hhrUAkRmJw7Qo8-59">
          <mxGeometry relative="1" as="geometry">
            <mxPoint x="407" y="79" as="targetPoint" />
          </mxGeometry>
        </mxCell>
        <mxCell id="pDpPo_hhrUAkRmJw7Qo8-61" value="项目基坑位置数据" style="shape=document;whiteSpace=wrap;html=1;boundedLbl=1;dashed=0;flipH=1;" vertex="1" parent="1">
          <mxGeometry x="436" y="11" width="100" height="45" as="geometry" />
        </mxCell>
        <mxCell id="pDpPo_hhrUAkRmJw7Qo8-72" style="edgeStyle=orthogonalEdgeStyle;rounded=0;orthogonalLoop=1;jettySize=auto;html=1;entryX=0.5;entryY=1;entryDx=0;entryDy=0;" edge="1" parent="1" source="pDpPo_hhrUAkRmJw7Qo8-62" target="pDpPo_hhrUAkRmJw7Qo8-59">
          <mxGeometry relative="1" as="geometry" />
        </mxCell>
        <mxCell id="pDpPo_hhrUAkRmJw7Qo8-62" value="历史轨迹" style="shape=ellipse;html=1;dashed=0;whiteSpace=wrap;aspect=fixed;perimeter=ellipsePerimeter;" vertex="1" parent="1">
          <mxGeometry x="326" y="186" width="55" height="55" as="geometry" />
        </mxCell>
        <mxCell id="pDpPo_hhrUAkRmJw7Qo8-73" style="edgeStyle=orthogonalEdgeStyle;rounded=0;orthogonalLoop=1;jettySize=auto;html=1;" edge="1" parent="1">
          <mxGeometry relative="1" as="geometry">
            <mxPoint x="406.46153846153834" y="147.69230769230762" as="targetPoint" />
            <mxPoint x="463.5" y="185" as="sourcePoint" />
            <Array as="points">
              <mxPoint x="464" y="166" />
              <mxPoint x="407" y="166" />
            </Array>
          </mxGeometry>
        </mxCell>
        <mxCell id="pDpPo_hhrUAkRmJw7Qo8-63" value="实时位置" style="shape=ellipse;html=1;dashed=0;whiteSpace=wrap;aspect=fixed;perimeter=ellipsePerimeter;" vertex="1" parent="1">
          <mxGeometry x="436" y="186" width="55" height="55" as="geometry" />
        </mxCell>
        <mxCell id="pDpPo_hhrUAkRmJw7Qo8-67" style="edgeStyle=orthogonalEdgeStyle;rounded=0;orthogonalLoop=1;jettySize=auto;html=1;entryX=0.441;entryY=0.912;entryDx=0;entryDy=0;entryPerimeter=0;" edge="1" parent="1" source="pDpPo_hhrUAkRmJw7Qo8-60" target="pDpPo_hhrUAkRmJw7Qo8-62">
          <mxGeometry relative="1" as="geometry" />
        </mxCell>
        <mxCell id="pDpPo_hhrUAkRmJw7Qo8-77" value="结束" style="html=1;dashed=0;whiteSpace=wrap;shape=mxgraph.dfd.start" vertex="1" parent="1">
          <mxGeometry x="525" y="106" width="74" height="30" as="geometry" />
        </mxCell>
        <mxCell id="pDpPo_hhrUAkRmJw7Qo8-80" style="edgeStyle=orthogonalEdgeStyle;rounded=0;orthogonalLoop=1;jettySize=auto;html=1;entryX=0;entryY=0.5;entryDx=0;entryDy=0;entryPerimeter=0;" edge="1" parent="1" source="pDpPo_hhrUAkRmJw7Qo8-59" target="pDpPo_hhrUAkRmJw7Qo8-77">
          <mxGeometry relative="1" as="geometry" />
        </mxCell>
        <mxCell id="pDpPo_hhrUAkRmJw7Qo8-95" style="edgeStyle=orthogonalEdgeStyle;rounded=0;orthogonalLoop=1;jettySize=auto;html=1;entryX=0;entryY=0.5;entryDx=0;entryDy=0;" edge="1" parent="1" source="pDpPo_hhrUAkRmJw7Qo8-81" target="pDpPo_hhrUAkRmJw7Qo8-82">
          <mxGeometry relative="1" as="geometry" />
        </mxCell>
        <mxCell id="pDpPo_hhrUAkRmJw7Qo8-81" value="开始" style="html=1;dashed=0;whiteSpace=wrap;shape=mxgraph.dfd.start" vertex="1" parent="1">
          <mxGeometry x="40" y="607.5" width="80" height="30" as="geometry" />
        </mxCell>
        <mxCell id="pDpPo_hhrUAkRmJw7Qo8-97" style="edgeStyle=orthogonalEdgeStyle;rounded=0;orthogonalLoop=1;jettySize=auto;html=1;entryX=0;entryY=0.5;entryDx=0;entryDy=0;" edge="1" parent="1" source="pDpPo_hhrUAkRmJw7Qo8-82" target="pDpPo_hhrUAkRmJw7Qo8-86">
          <mxGeometry relative="1" as="geometry" />
        </mxCell>
        <mxCell id="pDpPo_hhrUAkRmJw7Qo8-98" style="edgeStyle=orthogonalEdgeStyle;rounded=0;orthogonalLoop=1;jettySize=auto;html=1;entryX=0;entryY=0.5;entryDx=0;entryDy=0;" edge="1" parent="1" source="pDpPo_hhrUAkRmJw7Qo8-82" target="pDpPo_hhrUAkRmJw7Qo8-84">
          <mxGeometry relative="1" as="geometry" />
        </mxCell>
        <mxCell id="pDpPo_hhrUAkRmJw7Qo8-82" value="登录" style="html=1;dashed=0;whiteSpace=wrap;" vertex="1" parent="1">
          <mxGeometry x="159" y="602.5" width="64" height="39" as="geometry" />
        </mxCell>
        <mxCell id="pDpPo_hhrUAkRmJw7Qo8-88" style="edgeStyle=orthogonalEdgeStyle;rounded=0;orthogonalLoop=1;jettySize=auto;html=1;entryX=0;entryY=0.5;entryDx=0;entryDy=0;" edge="1" parent="1" source="pDpPo_hhrUAkRmJw7Qo8-84" target="pDpPo_hhrUAkRmJw7Qo8-85">
          <mxGeometry relative="1" as="geometry" />
        </mxCell>
        <mxCell id="pDpPo_hhrUAkRmJw7Qo8-94" style="edgeStyle=orthogonalEdgeStyle;rounded=0;orthogonalLoop=1;jettySize=auto;html=1;" edge="1" parent="1" source="pDpPo_hhrUAkRmJw7Qo8-84" target="pDpPo_hhrUAkRmJw7Qo8-92">
          <mxGeometry relative="1" as="geometry" />
        </mxCell>
        <mxCell id="pDpPo_hhrUAkRmJw7Qo8-84" value="用户增删改查" style="shape=ellipse;html=1;dashed=0;whiteSpace=wrap;perimeter=ellipsePerimeter;" vertex="1" parent="1">
          <mxGeometry x="265" y="654" width="107" height="105" as="geometry" />
        </mxCell>
        <mxCell id="pDpPo_hhrUAkRmJw7Qo8-89" style="edgeStyle=orthogonalEdgeStyle;rounded=0;orthogonalLoop=1;jettySize=auto;html=1;entryX=1;entryY=0.5;entryDx=0;entryDy=0;" edge="1" parent="1" source="pDpPo_hhrUAkRmJw7Qo8-85" target="pDpPo_hhrUAkRmJw7Qo8-84">
          <mxGeometry relative="1" as="geometry" />
        </mxCell>
        <mxCell id="pDpPo_hhrUAkRmJw7Qo8-85" value="用户数据" style="shape=cylinder;whiteSpace=wrap;html=1;boundedLbl=1;backgroundOutline=1;" vertex="1" parent="1">
          <mxGeometry x="450" y="674.75" width="62" height="63.5" as="geometry" />
        </mxCell>
        <mxCell id="pDpPo_hhrUAkRmJw7Qo8-91" style="edgeStyle=orthogonalEdgeStyle;rounded=0;orthogonalLoop=1;jettySize=auto;html=1;entryX=0;entryY=0.5;entryDx=0;entryDy=0;" edge="1" parent="1" source="pDpPo_hhrUAkRmJw7Qo8-86" target="pDpPo_hhrUAkRmJw7Qo8-87">
          <mxGeometry relative="1" as="geometry" />
        </mxCell>
        <mxCell id="pDpPo_hhrUAkRmJw7Qo8-93" style="edgeStyle=orthogonalEdgeStyle;rounded=0;orthogonalLoop=1;jettySize=auto;html=1;" edge="1" parent="1" source="pDpPo_hhrUAkRmJw7Qo8-86" target="pDpPo_hhrUAkRmJw7Qo8-92">
          <mxGeometry relative="1" as="geometry" />
        </mxCell>
        <mxCell id="pDpPo_hhrUAkRmJw7Qo8-105" style="edgeStyle=orthogonalEdgeStyle;rounded=0;orthogonalLoop=1;jettySize=auto;html=1;" edge="1" parent="1" source="pDpPo_hhrUAkRmJw7Qo8-86" target="pDpPo_hhrUAkRmJw7Qo8-104">
          <mxGeometry relative="1" as="geometry" />
        </mxCell>
        <mxCell id="pDpPo_hhrUAkRmJw7Qo8-86" value="角色增删改查" style="shape=ellipse;html=1;dashed=0;whiteSpace=wrap;perimeter=ellipsePerimeter;" vertex="1" parent="1">
          <mxGeometry x="265" y="477.25" width="107" height="105" as="geometry" />
        </mxCell>
        <mxCell id="pDpPo_hhrUAkRmJw7Qo8-90" style="edgeStyle=orthogonalEdgeStyle;rounded=0;orthogonalLoop=1;jettySize=auto;html=1;entryX=1;entryY=0.5;entryDx=0;entryDy=0;" edge="1" parent="1" source="pDpPo_hhrUAkRmJw7Qo8-87" target="pDpPo_hhrUAkRmJw7Qo8-86">
          <mxGeometry relative="1" as="geometry" />
        </mxCell>
        <mxCell id="pDpPo_hhrUAkRmJw7Qo8-87" value="角色数据" style="shape=cylinder;whiteSpace=wrap;html=1;boundedLbl=1;backgroundOutline=1;" vertex="1" parent="1">
          <mxGeometry x="450" y="424" width="62" height="63.5" as="geometry" />
        </mxCell>
        <mxCell id="pDpPo_hhrUAkRmJw7Qo8-92" value="绑定" style="html=1;dashed=0;whiteSpace=wrap;" vertex="1" parent="1">
          <mxGeometry x="286.5" y="605.5" width="64" height="32" as="geometry" />
        </mxCell>
        <mxCell id="pDpPo_hhrUAkRmJw7Qo8-99" value="结束" style="html=1;dashed=0;whiteSpace=wrap;shape=mxgraph.dfd.start" vertex="1" parent="1">
          <mxGeometry x="278.5" y="780" width="80" height="30" as="geometry" />
        </mxCell>
        <mxCell id="pDpPo_hhrUAkRmJw7Qo8-100" value="结束" style="html=1;dashed=0;whiteSpace=wrap;shape=mxgraph.dfd.start" vertex="1" parent="1">
          <mxGeometry x="278.5" y="424" width="80" height="30" as="geometry" />
        </mxCell>
        <mxCell id="pDpPo_hhrUAkRmJw7Qo8-101" style="edgeStyle=orthogonalEdgeStyle;rounded=0;orthogonalLoop=1;jettySize=auto;html=1;entryX=0.5;entryY=0.5;entryDx=0;entryDy=15;entryPerimeter=0;" edge="1" parent="1" source="pDpPo_hhrUAkRmJw7Qo8-86" target="pDpPo_hhrUAkRmJw7Qo8-100">
          <mxGeometry relative="1" as="geometry" />
        </mxCell>
        <mxCell id="pDpPo_hhrUAkRmJw7Qo8-102" style="edgeStyle=orthogonalEdgeStyle;rounded=0;orthogonalLoop=1;jettySize=auto;html=1;entryX=0.5;entryY=0.5;entryDx=0;entryDy=-15;entryPerimeter=0;" edge="1" parent="1" source="pDpPo_hhrUAkRmJw7Qo8-84" target="pDpPo_hhrUAkRmJw7Qo8-99">
          <mxGeometry relative="1" as="geometry" />
        </mxCell>
        <mxCell id="pDpPo_hhrUAkRmJw7Qo8-103" value="项目数据" style="shape=document;whiteSpace=wrap;html=1;boundedLbl=1;dashed=0;flipH=1;" vertex="1" parent="1">
          <mxGeometry x="427.5" y="593.5" width="89" height="48" as="geometry" />
        </mxCell>
        <mxCell id="pDpPo_hhrUAkRmJw7Qo8-106" style="edgeStyle=orthogonalEdgeStyle;rounded=0;orthogonalLoop=1;jettySize=auto;html=1;exitX=0.5;exitY=1;exitDx=0;exitDy=0;entryX=0.5;entryY=0;entryDx=0;entryDy=0;" edge="1" parent="1" source="pDpPo_hhrUAkRmJw7Qo8-104" target="pDpPo_hhrUAkRmJw7Qo8-103">
          <mxGeometry relative="1" as="geometry" />
        </mxCell>
        <mxCell id="pDpPo_hhrUAkRmJw7Qo8-104" value="绑定" style="html=1;dashed=0;whiteSpace=wrap;" vertex="1" parent="1">
          <mxGeometry x="450" y="546" width="44" height="28" as="geometry" />
        </mxCell>
        <mxCell id="pDpPo_hhrUAkRmJw7Qo8-125" style="edgeStyle=orthogonalEdgeStyle;rounded=0;orthogonalLoop=1;jettySize=auto;html=1;entryX=0;entryY=0.5;entryDx=0;entryDy=0;" edge="1" parent="1" source="pDpPo_hhrUAkRmJw7Qo8-107" target="pDpPo_hhrUAkRmJw7Qo8-109">
          <mxGeometry relative="1" as="geometry" />
        </mxCell>
        <mxCell id="pDpPo_hhrUAkRmJw7Qo8-107" value="开始" style="html=1;dashed=0;whiteSpace=wrap;shape=mxgraph.dfd.start" vertex="1" parent="1">
          <mxGeometry x="53" y="1035" width="65" height="30" as="geometry" />
        </mxCell>
        <mxCell id="pDpPo_hhrUAkRmJw7Qo8-126" style="edgeStyle=orthogonalEdgeStyle;rounded=0;orthogonalLoop=1;jettySize=auto;html=1;entryX=0;entryY=0.5;entryDx=0;entryDy=0;" edge="1" parent="1" source="pDpPo_hhrUAkRmJw7Qo8-109" target="pDpPo_hhrUAkRmJw7Qo8-110">
          <mxGeometry relative="1" as="geometry" />
        </mxCell>
        <mxCell id="pDpPo_hhrUAkRmJw7Qo8-109" value="项目增删改查" style="shape=ellipse;html=1;dashed=0;whiteSpace=wrap;perimeter=ellipsePerimeter;" vertex="1" parent="1">
          <mxGeometry x="155" y="1005" width="89" height="88" as="geometry" />
        </mxCell>
        <mxCell id="pDpPo_hhrUAkRmJw7Qo8-127" style="edgeStyle=orthogonalEdgeStyle;rounded=0;orthogonalLoop=1;jettySize=auto;html=1;entryX=0.5;entryY=1;entryDx=0;entryDy=0;" edge="1" parent="1" source="pDpPo_hhrUAkRmJw7Qo8-110" target="pDpPo_hhrUAkRmJw7Qo8-115">
          <mxGeometry relative="1" as="geometry" />
        </mxCell>
        <mxCell id="pDpPo_hhrUAkRmJw7Qo8-128" style="edgeStyle=orthogonalEdgeStyle;rounded=0;orthogonalLoop=1;jettySize=auto;html=1;entryX=0.5;entryY=0;entryDx=0;entryDy=0;" edge="1" parent="1" source="pDpPo_hhrUAkRmJw7Qo8-110" target="pDpPo_hhrUAkRmJw7Qo8-118">
          <mxGeometry relative="1" as="geometry" />
        </mxCell>
        <mxCell id="pDpPo_hhrUAkRmJw7Qo8-110" value="项目编辑" style="html=1;dashed=0;whiteSpace=wrap;" vertex="1" parent="1">
          <mxGeometry x="286.5" y="1033" width="75" height="32" as="geometry" />
        </mxCell>
        <mxCell id="pDpPo_hhrUAkRmJw7Qo8-141" style="edgeStyle=orthogonalEdgeStyle;rounded=0;orthogonalLoop=1;jettySize=auto;html=1;entryX=0;entryY=0.5;entryDx=0;entryDy=0;" edge="1" parent="1" source="pDpPo_hhrUAkRmJw7Qo8-111" target="pDpPo_hhrUAkRmJw7Qo8-121">
          <mxGeometry relative="1" as="geometry" />
        </mxCell>
        <mxCell id="pDpPo_hhrUAkRmJw7Qo8-111" value="基本信息" style="shape=document;whiteSpace=wrap;html=1;boundedLbl=1;dashed=0;flipH=1;" vertex="1" parent="1">
          <mxGeometry x="407" y="1065" width="78" height="39" as="geometry" />
        </mxCell>
        <mxCell id="pDpPo_hhrUAkRmJw7Qo8-133" style="edgeStyle=orthogonalEdgeStyle;rounded=0;orthogonalLoop=1;jettySize=auto;html=1;entryX=0;entryY=0.5;entryDx=0;entryDy=0;" edge="1" parent="1" source="pDpPo_hhrUAkRmJw7Qo8-115" target="pDpPo_hhrUAkRmJw7Qo8-116">
          <mxGeometry relative="1" as="geometry" />
        </mxCell>
        <mxCell id="pDpPo_hhrUAkRmJw7Qo8-134" style="edgeStyle=orthogonalEdgeStyle;rounded=0;orthogonalLoop=1;jettySize=auto;html=1;entryX=0;entryY=0.5;entryDx=0;entryDy=0;" edge="1" parent="1" source="pDpPo_hhrUAkRmJw7Qo8-115" target="pDpPo_hhrUAkRmJw7Qo8-117">
          <mxGeometry relative="1" as="geometry" />
        </mxCell>
        <mxCell id="pDpPo_hhrUAkRmJw7Qo8-115" value="矢量数据" style="html=1;dashed=0;whiteSpace=wrap;" vertex="1" parent="1">
          <mxGeometry x="287" y="965" width="75" height="32" as="geometry" />
        </mxCell>
        <mxCell id="pDpPo_hhrUAkRmJw7Qo8-135" style="edgeStyle=orthogonalEdgeStyle;rounded=0;orthogonalLoop=1;jettySize=auto;html=1;" edge="1" parent="1" source="pDpPo_hhrUAkRmJw7Qo8-116" target="pDpPo_hhrUAkRmJw7Qo8-120">
          <mxGeometry relative="1" as="geometry" />
        </mxCell>
        <mxCell id="pDpPo_hhrUAkRmJw7Qo8-116" value="项目范围矢量" style="shape=document;whiteSpace=wrap;html=1;boundedLbl=1;dashed=0;flipH=1;" vertex="1" parent="1">
          <mxGeometry x="404" y="919" width="76" height="46" as="geometry" />
        </mxCell>
        <mxCell id="pDpPo_hhrUAkRmJw7Qo8-136" style="edgeStyle=orthogonalEdgeStyle;rounded=0;orthogonalLoop=1;jettySize=auto;html=1;entryX=0;entryY=0.5;entryDx=0;entryDy=0;" edge="1" parent="1" source="pDpPo_hhrUAkRmJw7Qo8-117" target="pDpPo_hhrUAkRmJw7Qo8-120">
          <mxGeometry relative="1" as="geometry" />
        </mxCell>
        <mxCell id="pDpPo_hhrUAkRmJw7Qo8-117" value="基坑范围矢量" style="shape=document;whiteSpace=wrap;html=1;boundedLbl=1;dashed=0;flipH=1;" vertex="1" parent="1">
          <mxGeometry x="404" y="984" width="76" height="42" as="geometry" />
        </mxCell>
        <mxCell id="pDpPo_hhrUAkRmJw7Qo8-131" style="edgeStyle=orthogonalEdgeStyle;rounded=0;orthogonalLoop=1;jettySize=auto;html=1;entryX=0;entryY=0.5;entryDx=0;entryDy=0;" edge="1" parent="1" source="pDpPo_hhrUAkRmJw7Qo8-118" target="pDpPo_hhrUAkRmJw7Qo8-111">
          <mxGeometry relative="1" as="geometry" />
        </mxCell>
        <mxCell id="pDpPo_hhrUAkRmJw7Qo8-132" style="edgeStyle=orthogonalEdgeStyle;rounded=0;orthogonalLoop=1;jettySize=auto;html=1;" edge="1" parent="1" source="pDpPo_hhrUAkRmJw7Qo8-118" target="pDpPo_hhrUAkRmJw7Qo8-119">
          <mxGeometry relative="1" as="geometry" />
        </mxCell>
        <mxCell id="pDpPo_hhrUAkRmJw7Qo8-118" value="项目基本数据" style="html=1;dashed=0;whiteSpace=wrap;" vertex="1" parent="1">
          <mxGeometry x="287" y="1096" width="75" height="32" as="geometry" />
        </mxCell>
        <mxCell id="pDpPo_hhrUAkRmJw7Qo8-143" style="edgeStyle=orthogonalEdgeStyle;rounded=0;orthogonalLoop=1;jettySize=auto;html=1;entryX=0;entryY=0.5;entryDx=0;entryDy=0;" edge="1" parent="1" source="pDpPo_hhrUAkRmJw7Qo8-119" target="pDpPo_hhrUAkRmJw7Qo8-122">
          <mxGeometry relative="1" as="geometry" />
        </mxCell>
        <mxCell id="pDpPo_hhrUAkRmJw7Qo8-119" value="项目资料" style="shape=document;whiteSpace=wrap;html=1;boundedLbl=1;dashed=0;flipH=1;" vertex="1" parent="1">
          <mxGeometry x="407" y="1120" width="78" height="39" as="geometry" />
        </mxCell>
        <mxCell id="pDpPo_hhrUAkRmJw7Qo8-137" style="edgeStyle=orthogonalEdgeStyle;rounded=0;orthogonalLoop=1;jettySize=auto;html=1;entryX=1;entryY=0.5;entryDx=0;entryDy=0;" edge="1" parent="1" source="pDpPo_hhrUAkRmJw7Qo8-120" target="pDpPo_hhrUAkRmJw7Qo8-116">
          <mxGeometry relative="1" as="geometry" />
        </mxCell>
        <mxCell id="pDpPo_hhrUAkRmJw7Qo8-138" style="edgeStyle=orthogonalEdgeStyle;rounded=0;orthogonalLoop=1;jettySize=auto;html=1;entryX=1;entryY=0.5;entryDx=0;entryDy=0;" edge="1" parent="1" source="pDpPo_hhrUAkRmJw7Qo8-120" target="pDpPo_hhrUAkRmJw7Qo8-117">
          <mxGeometry relative="1" as="geometry" />
        </mxCell>
        <mxCell id="pDpPo_hhrUAkRmJw7Qo8-120" value="失量数据存储" style="shape=cylinder;whiteSpace=wrap;html=1;boundedLbl=1;backgroundOutline=1;" vertex="1" parent="1">
          <mxGeometry x="565.5" y="940" width="86" height="55" as="geometry" />
        </mxCell>
        <mxCell id="pDpPo_hhrUAkRmJw7Qo8-140" style="edgeStyle=orthogonalEdgeStyle;rounded=0;orthogonalLoop=1;jettySize=auto;html=1;entryX=1;entryY=0.5;entryDx=0;entryDy=0;" edge="1" parent="1" source="pDpPo_hhrUAkRmJw7Qo8-121" target="pDpPo_hhrUAkRmJw7Qo8-111">
          <mxGeometry relative="1" as="geometry" />
        </mxCell>
        <mxCell id="pDpPo_hhrUAkRmJw7Qo8-121" value="关系数据库存储" style="shape=cylinder;whiteSpace=wrap;html=1;boundedLbl=1;backgroundOutline=1;" vertex="1" parent="1">
          <mxGeometry x="561" y="1060" width="95" height="49" as="geometry" />
        </mxCell>
        <mxCell id="pDpPo_hhrUAkRmJw7Qo8-142" style="edgeStyle=orthogonalEdgeStyle;rounded=0;orthogonalLoop=1;jettySize=auto;html=1;entryX=1;entryY=0.5;entryDx=0;entryDy=0;" edge="1" parent="1" source="pDpPo_hhrUAkRmJw7Qo8-122" target="pDpPo_hhrUAkRmJw7Qo8-119">
          <mxGeometry relative="1" as="geometry" />
        </mxCell>
        <mxCell id="pDpPo_hhrUAkRmJw7Qo8-122" value="对象存储" style="html=1;dashed=0;whiteSpace=wrap;shape=partialRectangle;right=0;" vertex="1" parent="1">
          <mxGeometry x="561" y="1125" width="100" height="30" as="geometry" />
        </mxCell>
        <mxCell id="pDpPo_hhrUAkRmJw7Qo8-145" value="结束" style="html=1;dashed=0;whiteSpace=wrap;shape=mxgraph.dfd.start" vertex="1" parent="1">
          <mxGeometry x="291.5" y="910" width="65" height="30" as="geometry" />
        </mxCell>
        <mxCell id="pDpPo_hhrUAkRmJw7Qo8-146" style="edgeStyle=orthogonalEdgeStyle;rounded=0;orthogonalLoop=1;jettySize=auto;html=1;entryX=0.5;entryY=0.5;entryDx=0;entryDy=15;entryPerimeter=0;" edge="1" parent="1" source="pDpPo_hhrUAkRmJw7Qo8-115" target="pDpPo_hhrUAkRmJw7Qo8-145">
          <mxGeometry relative="1" as="geometry" />
        </mxCell>
        <mxCell id="pDpPo_hhrUAkRmJw7Qo8-147" value="结束" style="html=1;dashed=0;whiteSpace=wrap;shape=mxgraph.dfd.start" vertex="1" parent="1">
          <mxGeometry x="291.5" y="1155" width="65" height="30" as="geometry" />
        </mxCell>
        <mxCell id="pDpPo_hhrUAkRmJw7Qo8-148" style="edgeStyle=orthogonalEdgeStyle;rounded=0;orthogonalLoop=1;jettySize=auto;html=1;entryX=0.5;entryY=0.5;entryDx=0;entryDy=-15;entryPerimeter=0;" edge="1" parent="1" source="pDpPo_hhrUAkRmJw7Qo8-118" target="pDpPo_hhrUAkRmJw7Qo8-147">
          <mxGeometry relative="1" as="geometry" />
        </mxCell>
        <mxCell id="pDpPo_hhrUAkRmJw7Qo8-187" style="edgeStyle=orthogonalEdgeStyle;rounded=0;orthogonalLoop=1;jettySize=auto;html=1;entryX=0;entryY=0.5;entryDx=0;entryDy=0;" edge="1" parent="1" source="pDpPo_hhrUAkRmJw7Qo8-149" target="pDpPo_hhrUAkRmJw7Qo8-151">
          <mxGeometry relative="1" as="geometry" />
        </mxCell>
        <mxCell id="pDpPo_hhrUAkRmJw7Qo8-149" value="开始" style="html=1;dashed=0;whiteSpace=wrap;shape=mxgraph.dfd.start" vertex="1" parent="1">
          <mxGeometry x="63" y="1403.5" width="65" height="30" as="geometry" />
        </mxCell>
        <mxCell id="pDpPo_hhrUAkRmJw7Qo8-189" style="edgeStyle=orthogonalEdgeStyle;rounded=0;orthogonalLoop=1;jettySize=auto;html=1;entryX=0;entryY=0.5;entryDx=0;entryDy=0;" edge="1" parent="1" source="pDpPo_hhrUAkRmJw7Qo8-151" target="pDpPo_hhrUAkRmJw7Qo8-154">
          <mxGeometry relative="1" as="geometry" />
        </mxCell>
        <mxCell id="pDpPo_hhrUAkRmJw7Qo8-190" style="edgeStyle=orthogonalEdgeStyle;rounded=0;orthogonalLoop=1;jettySize=auto;html=1;entryX=0;entryY=0.5;entryDx=0;entryDy=0;" edge="1" parent="1" source="pDpPo_hhrUAkRmJw7Qo8-151" target="pDpPo_hhrUAkRmJw7Qo8-156">
          <mxGeometry relative="1" as="geometry" />
        </mxCell>
        <mxCell id="pDpPo_hhrUAkRmJw7Qo8-151" value="项目选择" style="html=1;dashed=0;whiteSpace=wrap;" vertex="1" parent="1">
          <mxGeometry x="166" y="1396" width="75" height="45" as="geometry" />
        </mxCell>
        <mxCell id="pDpPo_hhrUAkRmJw7Qo8-201" style="edgeStyle=orthogonalEdgeStyle;rounded=0;orthogonalLoop=1;jettySize=auto;html=1;entryX=0.5;entryY=0;entryDx=0;entryDy=0;" edge="1" parent="1" source="pDpPo_hhrUAkRmJw7Qo8-152" target="pDpPo_hhrUAkRmJw7Qo8-186">
          <mxGeometry relative="1" as="geometry" />
        </mxCell>
        <mxCell id="pDpPo_hhrUAkRmJw7Qo8-152" value="web端全景照片上传" style="html=1;dashed=0;whiteSpace=wrap;" vertex="1" parent="1">
          <mxGeometry x="407.75" y="1227" width="86.5" height="45" as="geometry" />
        </mxCell>
        <mxCell id="pDpPo_hhrUAkRmJw7Qo8-198" style="edgeStyle=orthogonalEdgeStyle;rounded=0;orthogonalLoop=1;jettySize=auto;html=1;" edge="1" parent="1" source="pDpPo_hhrUAkRmJw7Qo8-153" target="pDpPo_hhrUAkRmJw7Qo8-152">
          <mxGeometry relative="1" as="geometry" />
        </mxCell>
        <mxCell id="pDpPo_hhrUAkRmJw7Qo8-199" style="edgeStyle=orthogonalEdgeStyle;rounded=0;orthogonalLoop=1;jettySize=auto;html=1;entryX=0;entryY=0.5;entryDx=0;entryDy=0;" edge="1" parent="1" source="pDpPo_hhrUAkRmJw7Qo8-153" target="pDpPo_hhrUAkRmJw7Qo8-159">
          <mxGeometry relative="1" as="geometry" />
        </mxCell>
        <mxCell id="pDpPo_hhrUAkRmJw7Qo8-153" value="全景进度数据管理" style="shape=ellipse;html=1;dashed=0;whiteSpace=wrap;perimeter=ellipsePerimeter;" vertex="1" parent="1">
          <mxGeometry x="297" y="1260" width="68" height="65" as="geometry" />
        </mxCell>
        <mxCell id="pDpPo_hhrUAkRmJw7Qo8-196" style="edgeStyle=orthogonalEdgeStyle;rounded=0;orthogonalLoop=1;jettySize=auto;html=1;entryX=0;entryY=0.5;entryDx=0;entryDy=0;" edge="1" parent="1" source="pDpPo_hhrUAkRmJw7Qo8-154" target="pDpPo_hhrUAkRmJw7Qo8-155">
          <mxGeometry relative="1" as="geometry" />
        </mxCell>
        <mxCell id="pDpPo_hhrUAkRmJw7Qo8-197" style="edgeStyle=orthogonalEdgeStyle;rounded=0;orthogonalLoop=1;jettySize=auto;html=1;entryX=0;entryY=0.5;entryDx=0;entryDy=0;" edge="1" parent="1" source="pDpPo_hhrUAkRmJw7Qo8-154" target="pDpPo_hhrUAkRmJw7Qo8-160">
          <mxGeometry relative="1" as="geometry">
            <Array as="points">
              <mxPoint x="386" y="1420" />
              <mxPoint x="386" y="1450" />
            </Array>
          </mxGeometry>
        </mxCell>
        <mxCell id="pDpPo_hhrUAkRmJw7Qo8-154" value="基本进度数据管理" style="shape=ellipse;html=1;dashed=0;whiteSpace=wrap;perimeter=ellipsePerimeter;" vertex="1" parent="1">
          <mxGeometry x="297" y="1387" width="68" height="65" as="geometry" />
        </mxCell>
        <mxCell id="pDpPo_hhrUAkRmJw7Qo8-207" style="edgeStyle=orthogonalEdgeStyle;rounded=0;orthogonalLoop=1;jettySize=auto;html=1;entryX=0.5;entryY=1;entryDx=0;entryDy=0;" edge="1" parent="1" source="pDpPo_hhrUAkRmJw7Qo8-155" target="pDpPo_hhrUAkRmJw7Qo8-186">
          <mxGeometry relative="1" as="geometry" />
        </mxCell>
        <mxCell id="pDpPo_hhrUAkRmJw7Qo8-155" value="App端基本数据照片、视频上传" style="html=1;dashed=0;whiteSpace=wrap;" vertex="1" parent="1">
          <mxGeometry x="407" y="1371" width="90" height="45" as="geometry" />
        </mxCell>
        <mxCell id="pDpPo_hhrUAkRmJw7Qo8-191" style="edgeStyle=orthogonalEdgeStyle;rounded=0;orthogonalLoop=1;jettySize=auto;html=1;entryX=0;entryY=0.5;entryDx=0;entryDy=0;" edge="1" parent="1" source="pDpPo_hhrUAkRmJw7Qo8-156" target="pDpPo_hhrUAkRmJw7Qo8-157">
          <mxGeometry relative="1" as="geometry" />
        </mxCell>
        <mxCell id="pDpPo_hhrUAkRmJw7Qo8-192" style="edgeStyle=orthogonalEdgeStyle;rounded=0;orthogonalLoop=1;jettySize=auto;html=1;entryX=0;entryY=0.5;entryDx=0;entryDy=0;" edge="1" parent="1" source="pDpPo_hhrUAkRmJw7Qo8-156" target="pDpPo_hhrUAkRmJw7Qo8-195">
          <mxGeometry relative="1" as="geometry">
            <mxPoint x="398.4999999999998" y="1594" as="targetPoint" />
            <Array as="points">
              <mxPoint x="385" y="1555" />
              <mxPoint x="385" y="1590" />
            </Array>
          </mxGeometry>
        </mxCell>
        <mxCell id="pDpPo_hhrUAkRmJw7Qo8-156" value="基坑进度数据管理" style="shape=ellipse;html=1;dashed=0;whiteSpace=wrap;perimeter=ellipsePerimeter;" vertex="1" parent="1">
          <mxGeometry x="297" y="1522" width="68" height="65" as="geometry" />
        </mxCell>
        <mxCell id="pDpPo_hhrUAkRmJw7Qo8-206" style="edgeStyle=orthogonalEdgeStyle;rounded=0;orthogonalLoop=1;jettySize=auto;html=1;entryX=1;entryY=0.5;entryDx=0;entryDy=0;" edge="1" parent="1" source="pDpPo_hhrUAkRmJw7Qo8-157" target="pDpPo_hhrUAkRmJw7Qo8-185">
          <mxGeometry relative="1" as="geometry">
            <Array as="points">
              <mxPoint x="450" y="1561" />
              <mxPoint x="524" y="1561" />
              <mxPoint x="524" y="1659" />
            </Array>
          </mxGeometry>
        </mxCell>
        <mxCell id="pDpPo_hhrUAkRmJw7Qo8-157" value="App端基坑数据上传" style="html=1;dashed=0;whiteSpace=wrap;" vertex="1" parent="1">
          <mxGeometry x="405" y="1497" width="90" height="45" as="geometry" />
        </mxCell>
        <mxCell id="pDpPo_hhrUAkRmJw7Qo8-159" value="进度对比" style="html=1;dashed=0;whiteSpace=wrap;" vertex="1" parent="1">
          <mxGeometry x="408.5" y="1294" width="75" height="39" as="geometry" />
        </mxCell>
        <mxCell id="pDpPo_hhrUAkRmJw7Qo8-160" value="时间线展示" style="html=1;dashed=0;whiteSpace=wrap;" vertex="1" parent="1">
          <mxGeometry x="412.5" y="1430" width="75" height="39" as="geometry" />
        </mxCell>
        <mxCell id="pDpPo_hhrUAkRmJw7Qo8-174" style="edgeStyle=orthogonalEdgeStyle;rounded=0;orthogonalLoop=1;jettySize=auto;html=1;" edge="1" parent="1" source="pDpPo_hhrUAkRmJw7Qo8-162" target="pDpPo_hhrUAkRmJw7Qo8-163">
          <mxGeometry relative="1" as="geometry" />
        </mxCell>
        <mxCell id="pDpPo_hhrUAkRmJw7Qo8-162" value="开始" style="html=1;dashed=0;whiteSpace=wrap;shape=mxgraph.dfd.start" vertex="1" parent="1">
          <mxGeometry x="756" y="1237" width="65" height="30" as="geometry" />
        </mxCell>
        <mxCell id="pDpPo_hhrUAkRmJw7Qo8-175" style="edgeStyle=orthogonalEdgeStyle;rounded=0;orthogonalLoop=1;jettySize=auto;html=1;" edge="1" parent="1" source="pDpPo_hhrUAkRmJw7Qo8-163" target="pDpPo_hhrUAkRmJw7Qo8-173">
          <mxGeometry relative="1" as="geometry" />
        </mxCell>
        <mxCell id="pDpPo_hhrUAkRmJw7Qo8-163" value="App登录" style="html=1;dashed=0;whiteSpace=wrap;" vertex="1" parent="1">
          <mxGeometry x="751" y="1291" width="75" height="36" as="geometry" />
        </mxCell>
        <mxCell id="pDpPo_hhrUAkRmJw7Qo8-179" style="edgeStyle=orthogonalEdgeStyle;rounded=0;orthogonalLoop=1;jettySize=auto;html=1;entryX=0.5;entryY=0;entryDx=0;entryDy=0;" edge="1" parent="1" source="pDpPo_hhrUAkRmJw7Qo8-166" target="pDpPo_hhrUAkRmJw7Qo8-169">
          <mxGeometry relative="1" as="geometry" />
        </mxCell>
        <mxCell id="pDpPo_hhrUAkRmJw7Qo8-166" value="基本进度上报" style="html=1;dashed=0;whiteSpace=wrap;" vertex="1" parent="1">
          <mxGeometry x="679" y="1421" width="75" height="45" as="geometry" />
        </mxCell>
        <mxCell id="pDpPo_hhrUAkRmJw7Qo8-180" style="edgeStyle=orthogonalEdgeStyle;rounded=0;orthogonalLoop=1;jettySize=auto;html=1;entryX=0.5;entryY=0;entryDx=0;entryDy=0;" edge="1" parent="1" source="pDpPo_hhrUAkRmJw7Qo8-167" target="pDpPo_hhrUAkRmJw7Qo8-170">
          <mxGeometry relative="1" as="geometry" />
        </mxCell>
        <mxCell id="pDpPo_hhrUAkRmJw7Qo8-167" value="基坑进度上报" style="html=1;dashed=0;whiteSpace=wrap;" vertex="1" parent="1">
          <mxGeometry x="824" y="1421" width="75" height="45" as="geometry" />
        </mxCell>
        <mxCell id="pDpPo_hhrUAkRmJw7Qo8-181" style="edgeStyle=orthogonalEdgeStyle;rounded=0;orthogonalLoop=1;jettySize=auto;html=1;" edge="1" parent="1" source="pDpPo_hhrUAkRmJw7Qo8-169" target="pDpPo_hhrUAkRmJw7Qo8-157">
          <mxGeometry relative="1" as="geometry" />
        </mxCell>
        <mxCell id="pDpPo_hhrUAkRmJw7Qo8-169" value="定位、照片、视频、描述数据" style="shape=document;whiteSpace=wrap;html=1;boundedLbl=1;dashed=0;flipH=1;" vertex="1" parent="1">
          <mxGeometry x="665" y="1496" width="103" height="48" as="geometry" />
        </mxCell>
        <mxCell id="pDpPo_hhrUAkRmJw7Qo8-182" style="edgeStyle=orthogonalEdgeStyle;rounded=0;orthogonalLoop=1;jettySize=auto;html=1;" edge="1" parent="1" source="pDpPo_hhrUAkRmJw7Qo8-170" target="pDpPo_hhrUAkRmJw7Qo8-157">
          <mxGeometry relative="1" as="geometry">
            <Array as="points">
              <mxPoint x="862" y="1583" />
              <mxPoint x="571" y="1583" />
              <mxPoint x="571" y="1520" />
            </Array>
          </mxGeometry>
        </mxCell>
        <mxCell id="pDpPo_hhrUAkRmJw7Qo8-170" value="定位、照片、视频、深度、描述数据" style="shape=document;whiteSpace=wrap;html=1;boundedLbl=1;dashed=0;flipH=1;" vertex="1" parent="1">
          <mxGeometry x="803.5" y="1496" width="116" height="48" as="geometry" />
        </mxCell>
        <mxCell id="pDpPo_hhrUAkRmJw7Qo8-177" style="edgeStyle=orthogonalEdgeStyle;rounded=0;orthogonalLoop=1;jettySize=auto;html=1;entryX=1;entryY=0.5;entryDx=0;entryDy=0;" edge="1" parent="1" source="pDpPo_hhrUAkRmJw7Qo8-173" target="pDpPo_hhrUAkRmJw7Qo8-166">
          <mxGeometry relative="1" as="geometry" />
        </mxCell>
        <mxCell id="pDpPo_hhrUAkRmJw7Qo8-178" style="edgeStyle=orthogonalEdgeStyle;rounded=0;orthogonalLoop=1;jettySize=auto;html=1;entryX=0;entryY=0.5;entryDx=0;entryDy=0;" edge="1" parent="1" source="pDpPo_hhrUAkRmJw7Qo8-173" target="pDpPo_hhrUAkRmJw7Qo8-167">
          <mxGeometry relative="1" as="geometry" />
        </mxCell>
        <mxCell id="pDpPo_hhrUAkRmJw7Qo8-173" value="项目选择" style="html=1;dashed=0;whiteSpace=wrap;" vertex="1" parent="1">
          <mxGeometry x="751" y="1354" width="75" height="45" as="geometry" />
        </mxCell>
        <mxCell id="pDpPo_hhrUAkRmJw7Qo8-204" style="edgeStyle=orthogonalEdgeStyle;rounded=0;orthogonalLoop=1;jettySize=auto;html=1;entryX=0.5;entryY=1;entryDx=0;entryDy=0;" edge="1" parent="1" source="pDpPo_hhrUAkRmJw7Qo8-185" target="pDpPo_hhrUAkRmJw7Qo8-195">
          <mxGeometry relative="1" as="geometry" />
        </mxCell>
        <mxCell id="pDpPo_hhrUAkRmJw7Qo8-185" value="数据存储" style="html=1;dashed=0;whiteSpace=wrap;shape=partialRectangle;right=0;" vertex="1" parent="1">
          <mxGeometry x="404" y="1644" width="100" height="30" as="geometry" />
        </mxCell>
        <mxCell id="pDpPo_hhrUAkRmJw7Qo8-203" style="edgeStyle=orthogonalEdgeStyle;rounded=0;orthogonalLoop=1;jettySize=auto;html=1;entryX=1;entryY=0.5;entryDx=0;entryDy=0;" edge="1" parent="1" source="pDpPo_hhrUAkRmJw7Qo8-186" target="pDpPo_hhrUAkRmJw7Qo8-159">
          <mxGeometry relative="1" as="geometry" />
        </mxCell>
        <mxCell id="pDpPo_hhrUAkRmJw7Qo8-208" style="edgeStyle=orthogonalEdgeStyle;rounded=0;orthogonalLoop=1;jettySize=auto;html=1;entryX=1;entryY=0.5;entryDx=0;entryDy=0;" edge="1" parent="1" source="pDpPo_hhrUAkRmJw7Qo8-186" target="pDpPo_hhrUAkRmJw7Qo8-160">
          <mxGeometry relative="1" as="geometry">
            <Array as="points">
              <mxPoint x="586" y="1450" />
            </Array>
          </mxGeometry>
        </mxCell>
        <mxCell id="pDpPo_hhrUAkRmJw7Qo8-186" value="数据存储" style="html=1;dashed=0;whiteSpace=wrap;shape=partialRectangle;right=0;" vertex="1" parent="1">
          <mxGeometry x="536" y="1272" width="100" height="30" as="geometry" />
        </mxCell>
        <mxCell id="pDpPo_hhrUAkRmJw7Qo8-188" style="edgeStyle=orthogonalEdgeStyle;rounded=0;orthogonalLoop=1;jettySize=auto;html=1;entryX=0.005;entryY=0.406;entryDx=0;entryDy=0;entryPerimeter=0;" edge="1" parent="1" source="pDpPo_hhrUAkRmJw7Qo8-151" target="pDpPo_hhrUAkRmJw7Qo8-153">
          <mxGeometry relative="1" as="geometry" />
        </mxCell>
        <mxCell id="pDpPo_hhrUAkRmJw7Qo8-195" value="时间线展示" style="html=1;dashed=0;whiteSpace=wrap;" vertex="1" parent="1">
          <mxGeometry x="421" y="1570" width="65" height="39" as="geometry" />
        </mxCell>
        <mxCell id="pDpPo_hhrUAkRmJw7Qo8-210" style="edgeStyle=orthogonalEdgeStyle;rounded=0;orthogonalLoop=1;jettySize=auto;html=1;entryX=0;entryY=0.5;entryDx=0;entryDy=0;" edge="1" parent="1" source="pDpPo_hhrUAkRmJw7Qo8-211" target="pDpPo_hhrUAkRmJw7Qo8-214">
          <mxGeometry relative="1" as="geometry" />
        </mxCell>
        <mxCell id="pDpPo_hhrUAkRmJw7Qo8-211" value="开始" style="html=1;dashed=0;whiteSpace=wrap;shape=mxgraph.dfd.start" vertex="1" parent="1">
          <mxGeometry x="146" y="2178.5" width="65" height="30" as="geometry" />
        </mxCell>
        <mxCell id="pDpPo_hhrUAkRmJw7Qo8-262" style="edgeStyle=orthogonalEdgeStyle;rounded=0;orthogonalLoop=1;jettySize=auto;html=1;entryX=0;entryY=0.5;entryDx=0;entryDy=0;" edge="1" parent="1" source="pDpPo_hhrUAkRmJw7Qo8-214" target="pDpPo_hhrUAkRmJw7Qo8-254">
          <mxGeometry relative="1" as="geometry" />
        </mxCell>
        <mxCell id="pDpPo_hhrUAkRmJw7Qo8-214" value="项目选择" style="html=1;dashed=0;whiteSpace=wrap;" vertex="1" parent="1">
          <mxGeometry x="249" y="2171" width="75" height="45" as="geometry" />
        </mxCell>
        <mxCell id="pDpPo_hhrUAkRmJw7Qo8-264" style="edgeStyle=orthogonalEdgeStyle;rounded=0;orthogonalLoop=1;jettySize=auto;html=1;entryX=0.5;entryY=0;entryDx=0;entryDy=0;" edge="1" parent="1" source="pDpPo_hhrUAkRmJw7Qo8-227" target="pDpPo_hhrUAkRmJw7Qo8-248">
          <mxGeometry relative="1" as="geometry" />
        </mxCell>
        <mxCell id="pDpPo_hhrUAkRmJw7Qo8-266" style="edgeStyle=orthogonalEdgeStyle;rounded=0;orthogonalLoop=1;jettySize=auto;html=1;entryX=0;entryY=0.5;entryDx=0;entryDy=0;" edge="1" parent="1" source="pDpPo_hhrUAkRmJw7Qo8-227" target="pDpPo_hhrUAkRmJw7Qo8-229">
          <mxGeometry relative="1" as="geometry" />
        </mxCell>
        <mxCell id="pDpPo_hhrUAkRmJw7Qo8-267" style="edgeStyle=orthogonalEdgeStyle;rounded=0;orthogonalLoop=1;jettySize=auto;html=1;entryX=0;entryY=0.5;entryDx=0;entryDy=0;" edge="1" parent="1">
          <mxGeometry relative="1" as="geometry">
            <mxPoint x="511.49997619130113" y="2193.5384615384614" as="sourcePoint" />
            <mxPoint x="605.9999999999998" y="2218.5" as="targetPoint" />
            <Array as="points">
              <mxPoint x="552" y="2194" />
              <mxPoint x="552" y="2219" />
            </Array>
          </mxGeometry>
        </mxCell>
        <mxCell id="pDpPo_hhrUAkRmJw7Qo8-227" value="轨迹数据管理" style="shape=ellipse;html=1;dashed=0;whiteSpace=wrap;perimeter=ellipsePerimeter;" vertex="1" parent="1">
          <mxGeometry x="444.5" y="2161" width="68" height="65" as="geometry" />
        </mxCell>
        <mxCell id="pDpPo_hhrUAkRmJw7Qo8-229" value="轨迹数据列表查看（时间筛选）" style="html=1;dashed=0;whiteSpace=wrap;" vertex="1" parent="1">
          <mxGeometry x="591" y="2126" width="90" height="45" as="geometry" />
        </mxCell>
        <mxCell id="pDpPo_hhrUAkRmJw7Qo8-232" style="edgeStyle=orthogonalEdgeStyle;rounded=0;orthogonalLoop=1;jettySize=auto;html=1;" edge="1" parent="1" source="pDpPo_hhrUAkRmJw7Qo8-233" target="pDpPo_hhrUAkRmJw7Qo8-235">
          <mxGeometry relative="1" as="geometry" />
        </mxCell>
        <mxCell id="pDpPo_hhrUAkRmJw7Qo8-233" value="开始" style="html=1;dashed=0;whiteSpace=wrap;shape=mxgraph.dfd.start" vertex="1" parent="1">
          <mxGeometry x="443.5" y="1909" width="65" height="30" as="geometry" />
        </mxCell>
        <mxCell id="pDpPo_hhrUAkRmJw7Qo8-234" style="edgeStyle=orthogonalEdgeStyle;rounded=0;orthogonalLoop=1;jettySize=auto;html=1;" edge="1" parent="1" source="pDpPo_hhrUAkRmJw7Qo8-235">
          <mxGeometry relative="1" as="geometry">
            <mxPoint x="476.03846153846143" y="2026" as="targetPoint" />
          </mxGeometry>
        </mxCell>
        <mxCell id="pDpPo_hhrUAkRmJw7Qo8-235" value="App登录" style="html=1;dashed=0;whiteSpace=wrap;" vertex="1" parent="1">
          <mxGeometry x="438.5" y="1963" width="75" height="36" as="geometry" />
        </mxCell>
        <mxCell id="pDpPo_hhrUAkRmJw7Qo8-247" style="edgeStyle=orthogonalEdgeStyle;rounded=0;orthogonalLoop=1;jettySize=auto;html=1;entryX=0.5;entryY=1;entryDx=0;entryDy=0;" edge="1" parent="1" source="pDpPo_hhrUAkRmJw7Qo8-248" target="pDpPo_hhrUAkRmJw7Qo8-253">
          <mxGeometry relative="1" as="geometry" />
        </mxCell>
        <mxCell id="pDpPo_hhrUAkRmJw7Qo8-260" style="edgeStyle=orthogonalEdgeStyle;rounded=0;orthogonalLoop=1;jettySize=auto;html=1;entryX=1;entryY=0.5;entryDx=0;entryDy=0;" edge="1" parent="1" source="pDpPo_hhrUAkRmJw7Qo8-248" target="pDpPo_hhrUAkRmJw7Qo8-229">
          <mxGeometry relative="1" as="geometry" />
        </mxCell>
        <mxCell id="pDpPo_hhrUAkRmJw7Qo8-265" style="edgeStyle=orthogonalEdgeStyle;rounded=0;orthogonalLoop=1;jettySize=auto;html=1;entryX=0.5;entryY=1;entryDx=0;entryDy=0;" edge="1" parent="1" source="pDpPo_hhrUAkRmJw7Qo8-248" target="pDpPo_hhrUAkRmJw7Qo8-227">
          <mxGeometry relative="1" as="geometry" />
        </mxCell>
        <mxCell id="pDpPo_hhrUAkRmJw7Qo8-248" value="数据存储" style="html=1;dashed=0;whiteSpace=wrap;shape=partialRectangle;right=0;" vertex="1" parent="1">
          <mxGeometry x="428.5" y="2257" width="100" height="30" as="geometry" />
        </mxCell>
        <mxCell id="pDpPo_hhrUAkRmJw7Qo8-253" value="地图展示展示" style="html=1;dashed=0;whiteSpace=wrap;" vertex="1" parent="1">
          <mxGeometry x="607" y="2199" width="65" height="39" as="geometry" />
        </mxCell>
        <mxCell id="pDpPo_hhrUAkRmJw7Qo8-263" style="edgeStyle=orthogonalEdgeStyle;rounded=0;orthogonalLoop=1;jettySize=auto;html=1;entryX=0;entryY=0.5;entryDx=0;entryDy=0;" edge="1" parent="1" source="pDpPo_hhrUAkRmJw7Qo8-254" target="pDpPo_hhrUAkRmJw7Qo8-227">
          <mxGeometry relative="1" as="geometry" />
        </mxCell>
        <mxCell id="pDpPo_hhrUAkRmJw7Qo8-254" value="人员选择" style="html=1;dashed=0;whiteSpace=wrap;" vertex="1" parent="1">
          <mxGeometry x="350.5" y="2171" width="59.5" height="45" as="geometry" />
        </mxCell>
        <mxCell id="pDpPo_hhrUAkRmJw7Qo8-261" style="edgeStyle=orthogonalEdgeStyle;rounded=0;orthogonalLoop=1;jettySize=auto;html=1;" edge="1" parent="1" source="pDpPo_hhrUAkRmJw7Qo8-255" target="pDpPo_hhrUAkRmJw7Qo8-227">
          <mxGeometry relative="1" as="geometry" />
        </mxCell>
        <mxCell id="pDpPo_hhrUAkRmJw7Qo8-255" value="定位数据上报" style="html=1;dashed=0;whiteSpace=wrap;" vertex="1" parent="1">
          <mxGeometry x="440.5" y="2031.5" width="76" height="39" as="geometry" />
        </mxCell>
        <mxCell id="pDpPo_hhrUAkRmJw7Qo8-257" value="APP端" style="text;html=1;align=center;verticalAlign=middle;resizable=0;points=[];autosize=1;strokeColor=none;fillColor=none;" vertex="1" parent="1">
          <mxGeometry x="451.5" y="1864" width="54" height="26" as="geometry" />
        </mxCell>
        <mxCell id="pDpPo_hhrUAkRmJw7Qo8-271" style="edgeStyle=orthogonalEdgeStyle;rounded=0;orthogonalLoop=1;jettySize=auto;html=1;entryX=1;entryY=0.5;entryDx=0;entryDy=0;exitX=0.5;exitY=1;exitDx=0;exitDy=0;" edge="1" parent="1" source="pDpPo_hhrUAkRmJw7Qo8-268" target="pDpPo_hhrUAkRmJw7Qo8-255">
          <mxGeometry relative="1" as="geometry" />
        </mxCell>
        <mxCell id="pDpPo_hhrUAkRmJw7Qo8-268" value="位置数据获取" style="shape=ellipse;html=1;dashed=0;whiteSpace=wrap;perimeter=ellipsePerimeter;" vertex="1" parent="1">
          <mxGeometry x="577" y="1977" width="57" height="54" as="geometry" />
        </mxCell>
        <mxCell id="pDpPo_hhrUAkRmJw7Qo8-270" style="edgeStyle=orthogonalEdgeStyle;rounded=0;orthogonalLoop=1;jettySize=auto;html=1;exitX=0.5;exitY=1;exitDx=0;exitDy=0;entryX=0.5;entryY=0;entryDx=0;entryDy=0;" edge="1" parent="1" source="pDpPo_hhrUAkRmJw7Qo8-269" target="pDpPo_hhrUAkRmJw7Qo8-268">
          <mxGeometry relative="1" as="geometry" />
        </mxCell>
        <mxCell id="pDpPo_hhrUAkRmJw7Qo8-269" value="定位设备" style="html=1;dashed=0;whiteSpace=wrap;" vertex="1" parent="1">
          <mxGeometry x="578" y="1928" width="58" height="27" as="geometry" />
        </mxCell>
        <mxCell id="pDpPo_hhrUAkRmJw7Qo8-272" style="edgeStyle=orthogonalEdgeStyle;rounded=0;orthogonalLoop=1;jettySize=auto;html=1;entryX=0;entryY=0.5;entryDx=0;entryDy=0;" edge="1" parent="1" source="pDpPo_hhrUAkRmJw7Qo8-273" target="pDpPo_hhrUAkRmJw7Qo8-274">
          <mxGeometry relative="1" as="geometry" />
        </mxCell>
        <mxCell id="pDpPo_hhrUAkRmJw7Qo8-273" value="开始" style="html=1;dashed=0;whiteSpace=wrap;shape=mxgraph.dfd.start" vertex="1" parent="1">
          <mxGeometry x="120" y="2524.5" width="65" height="30" as="geometry" />
        </mxCell>
        <mxCell id="pDpPo_hhrUAkRmJw7Qo8-283" style="edgeStyle=orthogonalEdgeStyle;rounded=0;orthogonalLoop=1;jettySize=auto;html=1;entryX=0;entryY=0.5;entryDx=0;entryDy=0;" edge="1" parent="1" source="pDpPo_hhrUAkRmJw7Qo8-274" target="pDpPo_hhrUAkRmJw7Qo8-276">
          <mxGeometry relative="1" as="geometry" />
        </mxCell>
        <mxCell id="pDpPo_hhrUAkRmJw7Qo8-274" value="项目选择" style="html=1;dashed=0;whiteSpace=wrap;" vertex="1" parent="1">
          <mxGeometry x="223" y="2517" width="75" height="45" as="geometry" />
        </mxCell>
        <mxCell id="pDpPo_hhrUAkRmJw7Qo8-287" style="edgeStyle=orthogonalEdgeStyle;rounded=0;orthogonalLoop=1;jettySize=auto;html=1;entryX=0.5;entryY=1;entryDx=0;entryDy=0;" edge="1" parent="1" source="pDpPo_hhrUAkRmJw7Qo8-275" target="pDpPo_hhrUAkRmJw7Qo8-281">
          <mxGeometry relative="1" as="geometry" />
        </mxCell>
        <mxCell id="pDpPo_hhrUAkRmJw7Qo8-288" style="edgeStyle=orthogonalEdgeStyle;rounded=0;orthogonalLoop=1;jettySize=auto;html=1;exitX=0.5;exitY=0;exitDx=0;exitDy=0;" edge="1" parent="1" source="pDpPo_hhrUAkRmJw7Qo8-275" target="pDpPo_hhrUAkRmJw7Qo8-282">
          <mxGeometry relative="1" as="geometry" />
        </mxCell>
        <mxCell id="pDpPo_hhrUAkRmJw7Qo8-275" value="图表可视化" style="html=1;dashed=0;whiteSpace=wrap;" vertex="1" parent="1">
          <mxGeometry x="474" y="2456" width="75" height="45" as="geometry" />
        </mxCell>
        <mxCell id="pDpPo_hhrUAkRmJw7Qo8-284" style="edgeStyle=orthogonalEdgeStyle;rounded=0;orthogonalLoop=1;jettySize=auto;html=1;entryX=0;entryY=0.5;entryDx=0;entryDy=0;" edge="1" parent="1" source="pDpPo_hhrUAkRmJw7Qo8-276" target="pDpPo_hhrUAkRmJw7Qo8-275">
          <mxGeometry relative="1" as="geometry" />
        </mxCell>
        <mxCell id="pDpPo_hhrUAkRmJw7Qo8-285" style="edgeStyle=orthogonalEdgeStyle;rounded=0;orthogonalLoop=1;jettySize=auto;html=1;entryX=0;entryY=0.5;entryDx=0;entryDy=0;" edge="1" parent="1" source="pDpPo_hhrUAkRmJw7Qo8-276" target="pDpPo_hhrUAkRmJw7Qo8-277">
          <mxGeometry relative="1" as="geometry" />
        </mxCell>
        <mxCell id="pDpPo_hhrUAkRmJw7Qo8-276" value="数据筛选" style="shape=ellipse;html=1;dashed=0;whiteSpace=wrap;perimeter=ellipsePerimeter;" vertex="1" parent="1">
          <mxGeometry x="335" y="2501" width="86" height="77" as="geometry" />
        </mxCell>
        <mxCell id="pDpPo_hhrUAkRmJw7Qo8-289" style="edgeStyle=orthogonalEdgeStyle;rounded=0;orthogonalLoop=1;jettySize=auto;html=1;" edge="1" parent="1" source="pDpPo_hhrUAkRmJw7Qo8-277" target="pDpPo_hhrUAkRmJw7Qo8-278">
          <mxGeometry relative="1" as="geometry" />
        </mxCell>
        <mxCell id="pDpPo_hhrUAkRmJw7Qo8-290" style="edgeStyle=orthogonalEdgeStyle;rounded=0;orthogonalLoop=1;jettySize=auto;html=1;" edge="1" parent="1" source="pDpPo_hhrUAkRmJw7Qo8-277" target="pDpPo_hhrUAkRmJw7Qo8-279">
          <mxGeometry relative="1" as="geometry" />
        </mxCell>
        <mxCell id="pDpPo_hhrUAkRmJw7Qo8-277" value="数据导出" style="html=1;dashed=0;whiteSpace=wrap;" vertex="1" parent="1">
          <mxGeometry x="474" y="2562" width="75" height="36.5" as="geometry" />
        </mxCell>
        <mxCell id="pDpPo_hhrUAkRmJw7Qo8-278" value="Excel导出" style="html=1;dashed=0;whiteSpace=wrap;" vertex="1" parent="1">
          <mxGeometry x="424.5" y="2634" width="66.5" height="32" as="geometry" />
        </mxCell>
        <mxCell id="pDpPo_hhrUAkRmJw7Qo8-279" value="PDF导出" style="html=1;dashed=0;whiteSpace=wrap;" vertex="1" parent="1">
          <mxGeometry x="524.5" y="2634" width="66.5" height="33" as="geometry" />
        </mxCell>
        <mxCell id="pDpPo_hhrUAkRmJw7Qo8-280" value="折线图" style="html=1;dashed=0;whiteSpace=wrap;" vertex="1" parent="1">
          <mxGeometry x="388" y="2390" width="63" height="26" as="geometry" />
        </mxCell>
        <mxCell id="pDpPo_hhrUAkRmJw7Qo8-281" value="柱状图" style="html=1;dashed=0;whiteSpace=wrap;" vertex="1" parent="1">
          <mxGeometry x="480" y="2390" width="63" height="26" as="geometry" />
        </mxCell>
        <mxCell id="pDpPo_hhrUAkRmJw7Qo8-282" value="饼图" style="html=1;dashed=0;whiteSpace=wrap;" vertex="1" parent="1">
          <mxGeometry x="566" y="2390" width="63" height="26" as="geometry" />
        </mxCell>
        <mxCell id="pDpPo_hhrUAkRmJw7Qo8-286" style="edgeStyle=orthogonalEdgeStyle;rounded=0;orthogonalLoop=1;jettySize=auto;html=1;entryX=0.587;entryY=0.997;entryDx=0;entryDy=0;entryPerimeter=0;exitX=0.5;exitY=0;exitDx=0;exitDy=0;" edge="1" parent="1" source="pDpPo_hhrUAkRmJw7Qo8-275" target="pDpPo_hhrUAkRmJw7Qo8-280">
          <mxGeometry relative="1" as="geometry" />
        </mxCell>
        <mxCell id="pDpPo_hhrUAkRmJw7Qo8-293" style="edgeStyle=orthogonalEdgeStyle;rounded=0;orthogonalLoop=1;jettySize=auto;html=1;entryX=1;entryY=0.5;entryDx=0;entryDy=0;" edge="1" parent="1" source="pDpPo_hhrUAkRmJw7Qo8-292" target="pDpPo_hhrUAkRmJw7Qo8-275">
          <mxGeometry relative="1" as="geometry" />
        </mxCell>
        <mxCell id="pDpPo_hhrUAkRmJw7Qo8-294" style="edgeStyle=orthogonalEdgeStyle;rounded=0;orthogonalLoop=1;jettySize=auto;html=1;entryX=1;entryY=0.5;entryDx=0;entryDy=0;" edge="1" parent="1" source="pDpPo_hhrUAkRmJw7Qo8-292" target="pDpPo_hhrUAkRmJw7Qo8-277">
          <mxGeometry relative="1" as="geometry" />
        </mxCell>
        <mxCell id="pDpPo_hhrUAkRmJw7Qo8-292" value="数据存储" style="html=1;dashed=0;whiteSpace=wrap;shape=partialRectangle;right=0;" vertex="1" parent="1">
          <mxGeometry x="640" y="2506" width="100" height="30" as="geometry" />
        </mxCell>
        <mxCell id="pDpPo_hhrUAkRmJw7Qo8-296" value="APP端" style="text;html=1;align=center;verticalAlign=middle;resizable=0;points=[];autosize=1;strokeColor=none;fillColor=none;" vertex="1" parent="1">
          <mxGeometry x="782" y="1191" width="54" height="26" as="geometry" />
        </mxCell>
      </root>
    </mxGraphModel>
  </diagram>
</mxfile>
